# xmcd
#
# Track frame offsets:
#	150
#	16912
#	35869
#	54508
#	72909
#	73220
#	92489
#	110110
#	128426
#	146459
#	163591
#	179474
#	196055
#	212956
#	230267
#	248935
#	266464
#	284297
#	301463
#
# Disc length: 4257 seconds
#
# Revision: 0
# Processed by: cddbd v1.4PL0 Copyright (c) Steve Scherf et al.
# Submitted via: MusicWizard 6.0.0
#
DISCID=17109f13
DTITLE=Various Artist - Black Power
DYEAR=1900
DGENRE=Soul
TTITLE0=Coolio Feat. 40 Thevz - U When U Get There
TTITLE1=Ginuwine - Pony
TTITLE2=Imi Kamoze - Here Comes The Hotstepper
TTITLE3=Luniz - I Got 5 On It
TTITLE4= -
TTITLE5=Delinquent Habits - Tres Delinquwentes
TTITLE6=Montell Jordan - This Is How We Do It
TTITLE7=Coolio Feat. L.V. - Gangsters Paradiese
TTITLE8=K7 - Come Baby Come
TTITLE9=Jazzy Jeff and The Fresh Prince - Boom Shake The Room
TTITLE10=The Outhere Brothers - Boom,Boom, Boom
TTITLE11=Mn8 - I´ve Got A Little Something For You
TTITLE12=Tag Team - Whoop
TTITLE13=Rael To Real - I Like To Move It
TTITLE14=Skee-To - I Wish
TTITLE15=Shaggy - Boombastic
TTITLE16=Jay-Z - Whishing On A Star
TTITLE17=Nana - Darkman
TTITLE18=Apollo Four Forty - Aint Talking Bout You
EXTD=
EXTT0=
EXTT1=
EXTT2=
EXTT3=
EXTT4=
EXTT5=
EXTT6=
EXTT7=
EXTT8=
EXTT9=
EXTT10=
EXTT11=
EXTT12=
EXTT13=
EXTT14=
EXTT15=
EXTT16=
EXTT17=
EXTT18=
PLAYORDER=
